<mxfile host="app.diagrams.net" modified="2024-03-11T09:32:55.984Z" agent="Mozilla/5.0 (Windows NT 10.0; Win64; x64) AppleWebKit/537.36 (KHTML, like Gecko) Chrome/122.0.0.0 Safari/537.36" etag="61iTGVLuD_iuTtZdaAHb" version="24.0.4" type="github">
  <diagram name="Page-1" id="74e2e168-ea6b-b213-b513-2b3c1d86103e">
    <mxGraphModel dx="1593" dy="867" grid="1" gridSize="10" guides="1" tooltips="1" connect="1" arrows="1" fold="1" page="1" pageScale="1" pageWidth="1100" pageHeight="850" background="none" math="0" shadow="0">
      <root>
        <mxCell id="0" />
        <mxCell id="1" parent="0" />
        <mxCell id="K9nd1w9CICe55JjAkrVK-10" style="edgeStyle=orthogonalEdgeStyle;rounded=0;orthogonalLoop=1;jettySize=auto;html=1;exitX=1;exitY=0.5;exitDx=0;exitDy=0;entryX=0;entryY=0.25;entryDx=0;entryDy=0;" edge="1" parent="1" source="K9nd1w9CICe55JjAkrVK-1" target="K9nd1w9CICe55JjAkrVK-4">
          <mxGeometry relative="1" as="geometry" />
        </mxCell>
        <mxCell id="K9nd1w9CICe55JjAkrVK-1" value="Web-site" style="rounded=1;whiteSpace=wrap;html=1;" vertex="1" parent="1">
          <mxGeometry x="80" y="300" width="140" height="70" as="geometry" />
        </mxCell>
        <mxCell id="K9nd1w9CICe55JjAkrVK-11" style="edgeStyle=orthogonalEdgeStyle;rounded=0;orthogonalLoop=1;jettySize=auto;html=1;exitX=1;exitY=0.5;exitDx=0;exitDy=0;entryX=0;entryY=0.75;entryDx=0;entryDy=0;" edge="1" parent="1" source="K9nd1w9CICe55JjAkrVK-3" target="K9nd1w9CICe55JjAkrVK-4">
          <mxGeometry relative="1" as="geometry" />
        </mxCell>
        <mxCell id="K9nd1w9CICe55JjAkrVK-3" value="Application" style="rounded=1;whiteSpace=wrap;html=1;" vertex="1" parent="1">
          <mxGeometry x="80" y="425" width="140" height="70" as="geometry" />
        </mxCell>
        <mxCell id="K9nd1w9CICe55JjAkrVK-15" style="edgeStyle=orthogonalEdgeStyle;rounded=0;orthogonalLoop=1;jettySize=auto;html=1;exitX=0.5;exitY=0;exitDx=0;exitDy=0;entryX=0;entryY=0.5;entryDx=0;entryDy=0;" edge="1" parent="1" source="K9nd1w9CICe55JjAkrVK-4" target="K9nd1w9CICe55JjAkrVK-6">
          <mxGeometry relative="1" as="geometry" />
        </mxCell>
        <mxCell id="K9nd1w9CICe55JjAkrVK-20" style="edgeStyle=orthogonalEdgeStyle;rounded=0;orthogonalLoop=1;jettySize=auto;html=1;exitX=0.25;exitY=0;exitDx=0;exitDy=0;entryX=1;entryY=0.5;entryDx=0;entryDy=0;" edge="1" parent="1" source="K9nd1w9CICe55JjAkrVK-4" target="K9nd1w9CICe55JjAkrVK-12">
          <mxGeometry relative="1" as="geometry" />
        </mxCell>
        <mxCell id="K9nd1w9CICe55JjAkrVK-31" style="edgeStyle=orthogonalEdgeStyle;rounded=0;orthogonalLoop=1;jettySize=auto;html=1;exitX=1;exitY=0.25;exitDx=0;exitDy=0;entryX=0;entryY=0.25;entryDx=0;entryDy=0;" edge="1" parent="1" source="K9nd1w9CICe55JjAkrVK-4" target="K9nd1w9CICe55JjAkrVK-5">
          <mxGeometry relative="1" as="geometry" />
        </mxCell>
        <mxCell id="K9nd1w9CICe55JjAkrVK-4" value="Managment service" style="rounded=1;whiteSpace=wrap;html=1;" vertex="1" parent="1">
          <mxGeometry x="280" y="350" width="160" height="75" as="geometry" />
        </mxCell>
        <mxCell id="K9nd1w9CICe55JjAkrVK-18" style="edgeStyle=orthogonalEdgeStyle;rounded=0;orthogonalLoop=1;jettySize=auto;html=1;exitX=0.5;exitY=0;exitDx=0;exitDy=0;entryX=1;entryY=0.5;entryDx=0;entryDy=0;" edge="1" parent="1" source="K9nd1w9CICe55JjAkrVK-5" target="K9nd1w9CICe55JjAkrVK-6">
          <mxGeometry relative="1" as="geometry" />
        </mxCell>
        <mxCell id="K9nd1w9CICe55JjAkrVK-32" style="edgeStyle=orthogonalEdgeStyle;rounded=0;orthogonalLoop=1;jettySize=auto;html=1;exitX=0;exitY=0.75;exitDx=0;exitDy=0;entryX=1;entryY=0.75;entryDx=0;entryDy=0;" edge="1" parent="1" source="K9nd1w9CICe55JjAkrVK-5" target="K9nd1w9CICe55JjAkrVK-4">
          <mxGeometry relative="1" as="geometry" />
        </mxCell>
        <mxCell id="K9nd1w9CICe55JjAkrVK-5" value="Kitchen" style="rounded=1;whiteSpace=wrap;html=1;" vertex="1" parent="1">
          <mxGeometry x="520" y="350.63" width="150" height="73.75" as="geometry" />
        </mxCell>
        <mxCell id="K9nd1w9CICe55JjAkrVK-6" value="Deliviry" style="rounded=1;whiteSpace=wrap;html=1;" vertex="1" parent="1">
          <mxGeometry x="430" y="210" width="120" height="60" as="geometry" />
        </mxCell>
        <mxCell id="K9nd1w9CICe55JjAkrVK-24" style="edgeStyle=orthogonalEdgeStyle;rounded=0;orthogonalLoop=1;jettySize=auto;html=1;exitX=0;exitY=0.25;exitDx=0;exitDy=0;entryX=0;entryY=0.25;entryDx=0;entryDy=0;" edge="1" parent="1" source="K9nd1w9CICe55JjAkrVK-12" target="K9nd1w9CICe55JjAkrVK-1">
          <mxGeometry relative="1" as="geometry" />
        </mxCell>
        <mxCell id="K9nd1w9CICe55JjAkrVK-25" style="edgeStyle=orthogonalEdgeStyle;rounded=0;orthogonalLoop=1;jettySize=auto;html=1;exitX=0;exitY=0.75;exitDx=0;exitDy=0;entryX=0;entryY=0.5;entryDx=0;entryDy=0;" edge="1" parent="1" source="K9nd1w9CICe55JjAkrVK-12" target="K9nd1w9CICe55JjAkrVK-3">
          <mxGeometry relative="1" as="geometry" />
        </mxCell>
        <mxCell id="K9nd1w9CICe55JjAkrVK-12" value="Push-message" style="rounded=1;whiteSpace=wrap;html=1;" vertex="1" parent="1">
          <mxGeometry x="90" y="170" width="120" height="60" as="geometry" />
        </mxCell>
        <mxCell id="K9nd1w9CICe55JjAkrVK-19" style="edgeStyle=orthogonalEdgeStyle;rounded=0;orthogonalLoop=1;jettySize=auto;html=1;exitX=0;exitY=0.25;exitDx=0;exitDy=0;entryX=0.363;entryY=-0.019;entryDx=0;entryDy=0;entryPerimeter=0;" edge="1" parent="1" source="K9nd1w9CICe55JjAkrVK-6" target="K9nd1w9CICe55JjAkrVK-4">
          <mxGeometry relative="1" as="geometry" />
        </mxCell>
        <mxCell id="K9nd1w9CICe55JjAkrVK-26" value="Приложение доставки еды&lt;div&gt;&lt;br&gt;&lt;/div&gt;" style="text;html=1;align=center;verticalAlign=middle;resizable=0;points=[];autosize=1;strokeColor=none;fillColor=none;" vertex="1" parent="1">
          <mxGeometry x="275" y="80" width="170" height="40" as="geometry" />
        </mxCell>
        <mxCell id="K9nd1w9CICe55JjAkrVK-36" value="&lt;h1 style=&quot;margin-top: 0px;&quot;&gt;ТЗ&lt;/h1&gt;&lt;div&gt;&lt;br&gt;&lt;/div&gt;&lt;div&gt;Приложение доставки еды которое будет представлено в виде web-приложения и самого сайта.&lt;/div&gt;&lt;div&gt;Пользователь заходит на сайт, выбирает позицию, оформляет доставку, эта информация переходит в сервис менеджмента, менеджер передает информацию на кухню и доставщикам. Кухня по готовности передает информацию доставщикам и менеджеру, после чего доставщик забирает еду и оповещает менеджера. Менеджер отправляет пуш сообщение о доставке клиенту.&lt;/div&gt;" style="text;html=1;whiteSpace=wrap;overflow=hidden;rounded=0;" vertex="1" parent="1">
          <mxGeometry x="70" y="530" width="750" height="240" as="geometry" />
        </mxCell>
      </root>
    </mxGraphModel>
  </diagram>
</mxfile>
